<svg width="642.9" height="101.55" viewBox="0 0 642.9 101.55" xmlns="http://www.w3.org/2000/svg">
	<g id="svgGroup" stroke-linecap="round" fill-rule="evenodd" font-size="9pt" stroke="#000" stroke-width="0.25mm" fill="none" style="stroke:#000;stroke-width:0.25mm;fill:none">
		<path d="M 0 99 L 1.5 92.55 A 39.624 39.624 0 0 0 4.748 91.795 Q 9.206 90.544 11.175 88.575 Q 13.572 86.178 14.406 80.592 A 34.039 34.039 0 0 0 14.55 79.5 L 22.35 15.9 A 117.979 117.979 0 0 0 22.467 14.805 Q 22.65 13.003 22.65 12.3 A 9.698 9.698 0 0 0 22.58 11.09 Q 22.379 9.499 21.6 8.775 A 2.975 2.975 0 0 0 20.652 8.2 Q 19.634 7.8 18 7.8 Q 16.5 7.8 15.075 7.95 Q 13.911 8.073 13.397 8.095 A 4.619 4.619 0 0 1 13.2 8.1 L 12.9 7.5 L 14.7 1.35 A 35.667 35.667 0 0 0 15.638 1.42 Q 17.018 1.508 19.428 1.596 A 373.974 373.974 0 0 0 21 1.65 Q 25.65 1.8 30.3 1.8 A 155.567 155.567 0 0 0 36.656 1.674 A 140.037 140.037 0 0 0 38.7 1.575 A 349.761 349.761 0 0 0 40.343 1.48 Q 42.57 1.346 43.678 1.243 A 24.112 24.112 0 0 0 44.1 1.2 A 50.702 50.702 0 0 1 52.644 1.878 Q 57.39 2.69 61.246 4.475 A 27.072 27.072 0 0 1 64.8 6.45 A 18.567 18.567 0 0 1 69.798 11.17 Q 72.565 15.073 72.738 20.298 A 21.232 21.232 0 0 1 72.75 21 Q 72.75 29.55 67.425 36.3 A 32.889 32.889 0 0 1 58.724 43.932 A 43.106 43.106 0 0 1 52.8 46.95 A 36.016 36.016 0 0 1 59.538 49.116 Q 63.556 50.888 66.462 53.574 A 21.725 21.725 0 0 1 67.5 54.6 Q 72.75 60.15 72.75 67.8 A 26.879 26.879 0 0 1 68.697 81.925 A 32.621 32.621 0 0 1 68.1 82.875 A 34.243 34.243 0 0 1 56.481 93.796 A 40.23 40.23 0 0 1 55.5 94.35 Q 47.55 98.7 38.4 98.7 Q 34.35 98.7 28.05 97.95 Q 26.55 97.8 22.875 97.5 A 100.433 100.433 0 0 0 19.817 97.295 Q 17.953 97.2 16.35 97.2 A 64.214 64.214 0 0 0 9.433 97.588 A 75.085 75.085 0 0 0 6.6 97.95 Q 2.434 98.563 0.67 98.875 A 31.584 31.584 0 0 0 0 99 Z M 28.05 52.2 L 23.85 81 Q 23.735 81.459 23.708 82.357 A 19.824 19.824 0 0 0 23.7 82.95 A 9.381 9.381 0 0 0 24.052 85.6 A 6.622 6.622 0 0 0 27.3 89.625 A 11.779 11.779 0 0 0 29.861 90.649 Q 32.578 91.419 36.699 91.597 A 60.444 60.444 0 0 0 39.3 91.65 A 25.552 25.552 0 0 0 46.22 90.76 A 19.176 19.176 0 0 0 54.75 85.8 A 19.579 19.579 0 0 0 60.187 75.105 A 27.922 27.922 0 0 0 60.6 70.2 A 19.972 19.972 0 0 0 59.827 64.515 A 15.757 15.757 0 0 0 56.175 58.125 A 17.947 17.947 0 0 0 50.732 54.231 Q 48.362 53.099 45.43 52.39 A 36.562 36.562 0 0 0 43.05 51.9 L 28.05 52.2 Z M 34.65 10.35 L 33.45 17.7 Q 31.268 30.792 29.877 39.752 A 888.716 888.716 0 0 0 29.1 44.85 Q 30.896 44.988 34.981 45.381 A 1055.987 1055.987 0 0 1 35.7 45.45 A 249.914 249.914 0 0 0 37.931 45.656 Q 41.087 45.933 43.425 46.047 A 88.119 88.119 0 0 0 43.5 46.05 A 0.071 0.071 0 0 0 43.57 46.118 Q 44.089 46.223 48.45 44.175 A 23.035 23.035 0 0 0 54.76 39.738 A 29.336 29.336 0 0 0 57.3 36.9 Q 60.735 32.54 61.145 25.503 A 33.636 33.636 0 0 0 61.2 23.55 Q 61.2 15.15 55.425 11.025 A 18.424 18.424 0 0 0 50.49 8.593 Q 45.391 6.9 37.8 6.9 A 5.227 5.227 0 0 0 37.067 6.948 Q 36.229 7.067 35.788 7.484 A 1.476 1.476 0 0 0 35.7 7.575 A 2.355 2.355 0 0 0 35.392 8.034 Q 35.115 8.554 34.876 9.421 A 16.317 16.317 0 0 0 34.65 10.35 Z" id="0" vector-effect="non-scaling-stroke"/>
		<path d="M 139.35 76.95 L 145.65 76.35 L 145.95 77.1 A 30.584 30.584 0 0 0 145.683 77.874 Q 145.038 79.814 143.658 84.46 A 727.976 727.976 0 0 0 143.55 84.825 Q 141.75 90.9 140.25 97.2 L 139.5 97.95 Q 136.314 97.828 127.573 97.605 A 4537.738 4537.738 0 0 0 123.375 97.5 Q 112.439 97.232 105.285 97.203 A 413.513 413.513 0 0 0 103.65 97.2 A 115.447 115.447 0 0 0 96.63 97.405 A 94.655 94.655 0 0 0 92.7 97.725 Q 87.6 98.25 86.25 98.4 L 87.75 92.4 A 24.038 24.038 0 0 0 90.317 91.976 Q 93.558 91.242 95.1 89.7 A 7.343 7.343 0 0 0 96.41 87.853 Q 97.358 86.012 97.847 83.151 A 28.447 28.447 0 0 0 97.95 82.5 L 103.95 34.5 A 11.961 11.961 0 0 0 104.029 33.771 Q 104.09 33.012 104.099 31.991 A 40.64 40.64 0 0 0 104.1 31.65 Q 104.1 30.037 103.587 29.245 A 1.798 1.798 0 0 0 103.35 28.95 A 1.976 1.976 0 0 0 102.712 28.539 Q 102.09 28.276 101.1 28.217 A 10.147 10.147 0 0 0 100.5 28.2 L 96.6 28.35 L 96.3 27.75 L 97.8 22.2 A 32.521 32.521 0 0 0 98.683 22.266 Q 100.549 22.383 104.475 22.5 Q 109.5 22.65 115.35 22.65 A 651.156 651.156 0 0 0 126.806 22.556 Q 137.502 22.367 144.769 21.798 A 113.993 113.993 0 0 0 151.05 21.15 L 151.35 21.9 Q 150.75 23.55 149.175 29.325 A 168.696 168.696 0 0 0 147.656 35.344 A 208.025 208.025 0 0 0 146.25 41.85 L 139.5 42.3 A 146.491 146.491 0 0 0 139.58 41.897 Q 139.709 41.242 139.945 40.024 A 1943.368 1943.368 0 0 0 140.1 39.225 A 27.704 27.704 0 0 0 140.406 37.308 Q 140.514 36.417 140.541 35.62 A 15.317 15.317 0 0 0 140.55 35.1 A 8.537 8.537 0 0 0 140.443 33.7 Q 140.32 32.958 140.053 32.375 A 3.493 3.493 0 0 0 139.2 31.2 A 4.51 4.51 0 0 0 138.104 30.501 Q 136.767 29.877 134.55 29.625 A 40.292 40.292 0 0 0 132.647 29.461 Q 130.474 29.319 127.272 29.273 A 233.109 233.109 0 0 0 123.9 29.25 Q 120 29.25 118.5 29.475 Q 117.511 29.624 116.913 30.065 A 2.136 2.136 0 0 0 116.4 30.6 A 3.601 3.601 0 0 0 116.07 31.24 Q 115.795 31.917 115.607 32.941 A 16.825 16.825 0 0 0 115.5 33.6 L 111.9 55.35 L 123.75 55.5 A 35.192 35.192 0 0 0 125.184 55.467 Q 127.575 55.369 131.4 54.975 A 2109.978 2109.978 0 0 1 133.466 54.763 Q 136.065 54.498 137.43 54.368 A 151.073 151.073 0 0 1 138.15 54.3 L 138.6 54.9 L 136.05 62.55 A 64.308 64.308 0 0 1 135.112 62.542 Q 133.31 62.515 129.75 62.4 Q 125.1 62.25 119.85 62.25 A 54.614 54.614 0 0 0 114.924 62.484 A 71.09 71.09 0 0 0 110.7 63 L 108.75 75.45 A 267.844 267.844 0 0 0 108.166 78.904 Q 107.25 84.558 107.25 86.55 A 7.582 7.582 0 0 0 107.347 87.812 Q 107.65 89.6 108.9 90.225 Q 110.43 90.99 114.925 91.046 A 58.5 58.5 0 0 0 115.65 91.05 A 159.736 159.736 0 0 0 120.047 90.994 Q 126.15 90.825 129.3 90.15 Q 133.164 89.322 135.187 86.908 A 8.195 8.195 0 0 0 135.525 86.475 Q 137.18 84.207 138.686 79.281 A 67.515 67.515 0 0 0 139.35 76.95 Z" id="1" vector-effect="non-scaling-stroke"/>
		<path d="M 220.5 78 L 226.05 33.3 A 12.198 12.198 0 0 0 226.11 32.643 Q 226.39 28.2 222.75 28.2 L 218.4 28.35 L 218.1 27.75 L 219.9 22.05 Q 221.01 22.174 223.591 22.348 A 330.63 330.63 0 0 0 224.775 22.425 Q 228.3 22.65 231.9 22.65 Q 234.841 22.65 238.501 22.258 A 88.385 88.385 0 0 0 239.025 22.2 A 1791.175 1791.175 0 0 0 240.631 22.018 Q 243.263 21.717 244.2 21.6 L 243 27.6 Q 240.289 27.987 238.453 28.844 A 8.214 8.214 0 0 0 236.7 29.925 A 7.191 7.191 0 0 0 234.643 32.739 A 10.48 10.48 0 0 0 234 34.95 L 224.4 99.9 L 219 101.55 Q 207.9 80.25 196.275 59.925 A 6063.171 6063.171 0 0 0 193.587 55.231 Q 184.798 39.896 184.652 39.896 A 0.003 0.003 0 0 0 184.65 39.9 L 183.9 39.9 L 177.45 86.7 L 177.3 88.2 A 6.205 6.205 0 0 0 177.358 89.082 Q 177.513 90.157 178.079 90.707 A 1.875 1.875 0 0 0 178.125 90.75 A 2.472 2.472 0 0 0 178.937 91.229 Q 179.656 91.496 180.717 91.5 A 8.602 8.602 0 0 0 180.75 91.5 L 186.45 91.5 L 186.9 91.95 L 185.1 97.65 A 24.245 24.245 0 0 0 184.335 97.58 Q 183.214 97.492 181.269 97.404 A 245.779 245.779 0 0 0 180 97.35 A 189.111 189.111 0 0 0 174.631 97.215 A 223.581 223.581 0 0 0 172.05 97.2 A 61.933 61.933 0 0 0 168.731 97.294 A 83.453 83.453 0 0 0 165.075 97.575 A 725.129 725.129 0 0 0 163.527 97.728 Q 160.988 97.983 160.05 98.1 L 161.55 92.25 Q 164.158 91.937 165.896 91.007 A 7.061 7.061 0 0 0 167.25 90.075 A 6.531 6.531 0 0 0 168.899 87.755 Q 169.304 86.827 169.524 85.685 A 13.115 13.115 0 0 0 169.65 84.9 L 177.45 34.8 A 11.184 11.184 0 0 0 177.518 34.064 Q 177.656 31.705 176.623 30.37 A 3.693 3.693 0 0 0 175.95 29.7 Q 174 28.2 168.15 27.6 A 10.603 10.603 0 0 1 168.048 27.391 Q 167.85 26.972 167.85 26.85 L 169.2 22.05 Q 170.185 22.173 172.533 22.347 A 265.512 265.512 0 0 0 173.625 22.425 Q 176.85 22.65 180.15 22.65 Q 182.7 22.65 185.325 22.425 Q 187.469 22.241 188.362 22.108 A 7.205 7.205 0 0 0 188.7 22.05 A 1287.554 1287.554 0 0 0 203.016 48.389 A 1152.562 1152.562 0 0 0 207.75 56.775 A 13895.917 13895.917 0 0 0 211.056 62.572 Q 217.458 73.787 219.73 77.707 A 430.016 430.016 0 0 0 219.9 78 L 220.5 78 Z" id="2" vector-effect="non-scaling-stroke"/>
		<path d="M 271.368 97.449 A 34.182 34.182 0 0 0 280.2 98.55 Q 292.2 98.55 302.25 92.475 Q 312.3 86.4 318.075 75.825 A 46.666 46.666 0 0 0 320.327 71.089 A 48.718 48.718 0 0 0 323.85 52.5 Q 323.85 43.2 319.95 36.075 Q 316.05 28.95 309.075 25.05 A 29.575 29.575 0 0 0 302.091 22.251 A 35.431 35.431 0 0 0 293.1 21.15 Q 281.1 21.15 271.275 27.225 Q 261.45 33.3 255.75 43.875 A 46.875 46.875 0 0 0 253.256 49.299 A 49.454 49.454 0 0 0 250.05 67.2 A 40.752 40.752 0 0 0 250.424 72.8 A 31.965 31.965 0 0 0 253.875 83.625 Q 257.7 90.75 264.525 94.65 A 28.545 28.545 0 0 0 271.368 97.449 Z M 283.35 91.65 A 25.152 25.152 0 0 0 293.418 89.654 A 24.189 24.189 0 0 0 297.75 87.225 Q 304.05 82.8 307.575 74.7 A 41.905 41.905 0 0 0 310.604 63.696 A 54.047 54.047 0 0 0 311.1 56.25 Q 311.1 45.982 306.971 39.111 A 23.778 23.778 0 0 0 305.175 36.525 A 18.827 18.827 0 0 0 291.587 29.189 A 24.067 24.067 0 0 0 289.5 29.1 Q 281.7 29.1 275.475 33.6 A 27.927 27.927 0 0 0 267.988 41.818 A 35.964 35.964 0 0 0 265.725 46.2 A 42.149 42.149 0 0 0 262.617 57.736 A 53.324 53.324 0 0 0 262.2 64.5 Q 262.2 76.95 267.975 84.3 A 18.336 18.336 0 0 0 281.296 91.562 A 23.547 23.547 0 0 0 283.35 91.65 Z" id="3" vector-effect="non-scaling-stroke"/>
		<path d="M 333 94.05 L 332.4 92.55 A 13.818 13.818 0 0 0 332.534 92.12 Q 332.842 91.079 333.487 88.567 A 362.015 362.015 0 0 0 333.6 88.125 A 97.507 97.507 0 0 0 334.064 86.222 Q 334.68 83.587 335.39 80.018 A 311.006 311.006 0 0 0 335.625 78.825 A 147.893 147.893 0 0 0 336.885 71.284 A 177.301 177.301 0 0 0 337.5 66.45 L 343.65 65.7 A 151.086 151.086 0 0 0 343.119 70.673 Q 342.75 74.829 342.75 78 Q 342.75 83.489 344.136 86.534 A 9.387 9.387 0 0 0 344.325 86.925 Q 345.9 90 349.35 91.2 A 17.113 17.113 0 0 0 351.799 91.833 Q 354.391 92.32 358.031 92.389 A 64.766 64.766 0 0 0 359.25 92.4 Q 369.15 92.4 375.45 87.3 A 16.884 16.884 0 0 0 380.15 81.502 Q 381.747 78.188 381.75 74.116 A 21.172 21.172 0 0 0 381.75 74.1 A 13.056 13.056 0 0 0 378.19 65.096 A 17.133 17.133 0 0 0 377.7 64.575 A 37.609 37.609 0 0 0 374.473 61.677 Q 372.721 60.264 370.565 58.795 A 92.356 92.356 0 0 0 365.85 55.8 A 628.878 628.878 0 0 1 361.781 53.325 Q 357.875 50.927 355.166 49.168 A 132.472 132.472 0 0 1 352.95 47.7 A 29.801 29.801 0 0 1 347.339 42.712 A 35.911 35.911 0 0 1 345.375 40.275 A 17.298 17.298 0 0 1 342.001 29.911 A 21.202 21.202 0 0 1 342 29.7 Q 342 21.6 346.575 14.775 A 31.095 31.095 0 0 1 356.986 5.149 A 37.668 37.668 0 0 1 359.175 3.975 A 38.699 38.699 0 0 1 375.014 0.035 A 45.338 45.338 0 0 1 376.8 0 Q 382.5 0 387.525 0.825 A 140.575 140.575 0 0 1 390.758 1.392 Q 392.195 1.663 393.431 1.934 A 57.976 57.976 0 0 1 395.7 2.475 Q 398.85 3.3 399.6 3.6 L 399.9 4.35 Q 399.318 6.241 397.467 13.279 A 1341.926 1341.926 0 0 0 397.35 13.725 A 231.112 231.112 0 0 0 395.03 23.446 A 278.94 278.94 0 0 0 393.75 29.7 L 388.35 30.3 L 387.6 29.55 A 13.769 13.769 0 0 0 387.749 28.969 Q 387.978 28.007 388.34 26.133 A 216.558 216.558 0 0 0 388.575 24.9 A 43.653 43.653 0 0 0 389.036 21.894 Q 389.21 20.398 389.242 19.06 A 25.088 25.088 0 0 0 389.25 18.45 A 16.75 16.75 0 0 0 388.979 15.321 Q 388.272 11.614 385.725 9.825 A 10.269 10.269 0 0 0 383.097 8.547 Q 380.377 7.629 376.186 7.415 A 52.754 52.754 0 0 0 373.5 7.35 A 26.509 26.509 0 0 0 366.298 8.287 A 21.152 21.152 0 0 0 359.025 11.925 A 16.437 16.437 0 0 0 355.357 15.769 A 13.41 13.41 0 0 0 353.1 23.4 Q 353.1 27.9 355.95 31.425 A 29.729 29.729 0 0 0 358.602 34.27 Q 360.892 36.444 364.05 38.7 L 372.15 43.65 A 342.227 342.227 0 0 1 375.567 45.741 Q 379.736 48.327 382.691 50.352 A 104.233 104.233 0 0 1 383.625 51 Q 387.9 54 390.9 58.275 Q 393.9 62.55 393.9 67.95 Q 393.9 76.65 389.175 83.775 A 30.833 30.833 0 0 1 378.972 93.323 A 38.138 38.138 0 0 1 375.9 94.95 A 41.72 41.72 0 0 1 363.645 98.522 A 53.16 53.16 0 0 1 356.4 99 A 56.449 56.449 0 0 1 349.222 98.561 A 46.867 46.867 0 0 1 345.225 97.875 A 108.796 108.796 0 0 1 342.188 97.172 Q 340.633 96.787 339.315 96.402 A 43.522 43.522 0 0 1 336.9 95.625 Q 334.376 94.724 333.393 94.256 A 4.785 4.785 0 0 1 333 94.05 Z" id="4" vector-effect="non-scaling-stroke"/>
		<path d="M 475.5 24 L 475.95 24.9 Q 475.65 25.65 474.75 28.2 A 55.87 55.87 0 0 0 474.277 29.606 Q 473.764 31.192 473.152 33.336 A 204.646 204.646 0 0 0 472.575 35.4 Q 471.3 40.05 470.4 45 L 463.5 45.6 A 39.436 39.436 0 0 0 463.58 45.186 Q 463.748 44.292 464.1 42.3 Q 464.55 39.75 464.55 38.4 Q 464.55 29.379 450.744 28.97 A 45.355 45.355 0 0 0 449.4 28.95 A 27.541 27.541 0 0 0 440.339 30.404 A 24.822 24.822 0 0 0 434.55 33.3 A 27.496 27.496 0 0 0 426.211 42.294 A 34.611 34.611 0 0 0 424.5 45.6 A 39.268 39.268 0 0 0 421.589 55.398 A 53.643 53.643 0 0 0 420.9 64.2 A 45.496 45.496 0 0 0 421.567 72.242 Q 422.863 79.448 426.675 84.3 A 18.73 18.73 0 0 0 440.434 91.559 A 26.383 26.383 0 0 0 442.65 91.65 A 22.265 22.265 0 0 0 448.87 90.818 A 17.886 17.886 0 0 0 455.475 87.3 Q 460.65 82.95 463.95 73.65 L 470.85 73.05 A 55.122 55.122 0 0 0 470.53 74.049 Q 470.014 75.705 469.069 78.944 A 898.266 898.266 0 0 0 468.45 81.075 Q 466.65 87.3 465.45 92.7 L 464.55 93.9 A 22.282 22.282 0 0 1 464.184 94.042 Q 463.209 94.411 460.65 95.325 Q 457.57 96.425 452.41 97.454 A 117.613 117.613 0 0 1 452.175 97.5 A 55.118 55.118 0 0 1 445.323 98.39 A 69.071 69.071 0 0 1 440.55 98.55 A 41.355 41.355 0 0 1 430.348 97.358 A 29.391 29.391 0 0 1 417 90.075 A 28.14 28.14 0 0 1 408.704 74.036 A 40.435 40.435 0 0 1 408.15 67.2 A 51.07 51.07 0 0 1 410.212 52.477 A 44.795 44.795 0 0 1 414 43.5 Q 419.85 33 430.2 27.075 A 45.135 45.135 0 0 1 449.588 21.295 A 54.865 54.865 0 0 1 453.6 21.15 Q 457.95 21.15 462.825 21.75 A 126.711 126.711 0 0 1 466.281 22.221 Q 467.976 22.478 469.455 22.757 A 63.342 63.342 0 0 1 471.15 23.1 Q 474.378 23.802 475.374 23.978 A 12.54 12.54 0 0 0 475.5 24 Z" id="5" vector-effect="non-scaling-stroke"/>
		<path d="M 550.35 91.8 L 550.65 92.25 L 549.3 97.5 A 50.33 50.33 0 0 1 548.421 97.491 Q 546.859 97.463 543.975 97.35 Q 540.15 97.2 536.25 97.2 Q 530.55 97.2 525.075 97.65 A 1832.644 1832.644 0 0 0 523.162 97.808 Q 519.462 98.116 518.195 98.241 A 52.746 52.746 0 0 0 518.1 98.25 L 517.8 97.5 L 518.85 92.4 Q 524.926 91.986 527.188 91 A 4.993 4.993 0 0 0 527.55 90.825 A 3.787 3.787 0 0 0 529.535 88.091 A 6.293 6.293 0 0 0 529.65 86.85 A 19.309 19.309 0 0 0 529.508 84.561 A 24.686 24.686 0 0 0 529.2 82.65 L 527.25 70.8 L 515.25 70.65 A 71.211 71.211 0 0 0 511.528 70.756 Q 509.599 70.858 507.38 71.056 A 170.649 170.649 0 0 0 502.65 71.55 L 497.25 83.1 Q 495.884 85.708 495.649 87.391 A 4.778 4.778 0 0 0 495.6 88.05 A 4.84 4.84 0 0 0 495.726 89.191 A 2.918 2.918 0 0 0 497.025 91.05 Q 498.45 91.95 501.75 91.95 L 508.2 91.95 L 508.2 92.4 L 507 97.95 Q 505.775 97.828 502.197 97.605 A 687.621 687.621 0 0 0 500.475 97.5 Q 495.45 97.2 490.5 97.2 Q 486 97.2 482.175 97.35 A 492.295 492.295 0 0 1 480.627 97.409 Q 478.683 97.479 477.677 97.495 A 32.973 32.973 0 0 1 477.15 97.5 L 478.8 91.5 A 11.074 11.074 0 0 0 481.751 90.84 A 9.072 9.072 0 0 0 484.35 89.325 A 10.73 10.73 0 0 0 485.756 87.882 Q 487.086 86.262 488.415 83.673 A 41.135 41.135 0 0 0 488.85 82.8 L 518.4 23.25 L 528.45 21.15 L 529.5 21.3 A 315.134 315.134 0 0 0 530.012 24.72 Q 530.874 30.304 532.622 40.852 A 4529.097 4529.097 0 0 0 533.775 47.775 A 840.925 840.925 0 0 0 536.742 64.524 Q 538.18 72.163 539.631 78.961 A 482.801 482.801 0 0 0 540.6 83.4 A 20.273 20.273 0 0 0 541.186 85.683 Q 541.948 88.028 543.155 89.277 A 5.254 5.254 0 0 0 543.525 89.625 A 6.732 6.732 0 0 0 545.199 90.64 Q 547.163 91.501 550.35 91.8 Z M 505.8 64.95 L 515.7 64.95 Q 520.8 64.95 526.2 64.35 L 521.1 34.8 L 520.05 34.8 L 505.8 64.95 Z" id="6" vector-effect="non-scaling-stroke"/>
		<path d="M 619.2 78 L 624.75 33.3 A 12.198 12.198 0 0 0 624.81 32.643 Q 625.09 28.2 621.45 28.2 L 617.1 28.35 L 616.8 27.75 L 618.6 22.05 Q 619.71 22.174 622.291 22.348 A 330.63 330.63 0 0 0 623.475 22.425 Q 627 22.65 630.6 22.65 Q 633.541 22.65 637.201 22.258 A 88.385 88.385 0 0 0 637.725 22.2 A 1791.175 1791.175 0 0 0 639.331 22.018 Q 641.963 21.717 642.9 21.6 L 641.7 27.6 Q 638.989 27.987 637.153 28.844 A 8.214 8.214 0 0 0 635.4 29.925 A 7.191 7.191 0 0 0 633.343 32.739 A 10.48 10.48 0 0 0 632.7 34.95 L 623.1 99.9 L 617.7 101.55 Q 606.6 80.25 594.975 59.925 A 6063.171 6063.171 0 0 0 592.287 55.231 Q 583.498 39.896 583.352 39.896 A 0.003 0.003 0 0 0 583.35 39.9 L 582.6 39.9 L 576.15 86.7 L 576 88.2 A 6.205 6.205 0 0 0 576.058 89.082 Q 576.213 90.157 576.779 90.707 A 1.875 1.875 0 0 0 576.825 90.75 A 2.472 2.472 0 0 0 577.637 91.229 Q 578.356 91.496 579.417 91.5 A 8.602 8.602 0 0 0 579.45 91.5 L 585.15 91.5 L 585.6 91.95 L 583.8 97.65 A 24.245 24.245 0 0 0 583.035 97.58 Q 581.914 97.492 579.969 97.404 A 245.779 245.779 0 0 0 578.7 97.35 A 189.111 189.111 0 0 0 573.331 97.215 A 223.581 223.581 0 0 0 570.75 97.2 A 61.933 61.933 0 0 0 567.431 97.294 A 83.453 83.453 0 0 0 563.775 97.575 A 725.129 725.129 0 0 0 562.227 97.728 Q 559.688 97.983 558.75 98.1 L 560.25 92.25 Q 562.858 91.937 564.596 91.007 A 7.061 7.061 0 0 0 565.95 90.075 A 6.531 6.531 0 0 0 567.599 87.755 Q 568.004 86.827 568.224 85.685 A 13.115 13.115 0 0 0 568.35 84.9 L 576.15 34.8 A 11.184 11.184 0 0 0 576.218 34.064 Q 576.356 31.705 575.323 30.37 A 3.693 3.693 0 0 0 574.65 29.7 Q 572.7 28.2 566.85 27.6 A 10.603 10.603 0 0 1 566.748 27.391 Q 566.55 26.972 566.55 26.85 L 567.9 22.05 Q 568.885 22.173 571.233 22.347 A 265.512 265.512 0 0 0 572.325 22.425 Q 575.55 22.65 578.85 22.65 Q 581.4 22.65 584.025 22.425 Q 586.169 22.241 587.062 22.108 A 7.205 7.205 0 0 0 587.4 22.05 A 1287.554 1287.554 0 0 0 601.716 48.389 A 1152.562 1152.562 0 0 0 606.45 56.775 A 13895.917 13895.917 0 0 0 609.756 62.572 Q 616.158 73.787 618.43 77.707 A 430.016 430.016 0 0 0 618.6 78 L 619.2 78 Z" id="7" vector-effect="non-scaling-stroke"/>
	</g>
</svg>